<?xml version="1.0" encoding="utf-8"?>
<!-- Generator: Adobe Illustrator 23.0.4, SVG Export Plug-In . SVG Version: 6.00 Build 0)  -->
<svg version="1.1" id="Layer_1" xmlns="http://www.w3.org/2000/svg" xmlns:xlink="http://www.w3.org/1999/xlink" x="0px" y="0px"
	 viewBox="0 0 106.1 32.7" style="enable-background:new 0 0 106.1 32.7;" xml:space="preserve">
<style type="text/css">
	.st0{fill:#FF5A58;}
	.st1{fill:#FFFFFF;}
</style>
<g>
	<g>
		<path class="st0" d="M46.8,22.9l-0.4,0.2c-1.2,0.5-2.2,0.7-3.4,0.7c-0.1,0-0.2,0-0.3,0c-1.7,0-3.1-0.5-4.1-1.5
			c-1.1-1.1-1.7-2.7-1.7-4.8v-6.3h-2.9V6.8h2.9V3.9l4.9-1.8v4.7h2.4l1.8,4.4h-4.2v6.3c0,1.1,0.5,1.7,1.5,1.7c0.5,0,1.1-0.2,1.7-0.4
			l0.5-0.3L46.8,22.9z"/>
	</g>
	<g>
		<polygon class="st0" points="64.5,6.8 54.4,30.2 49.1,30.2 52.2,22.8 45.7,6.8 51.4,6.8 54.9,17.1 56.1,14 59.1,6.8 		"/>
	</g>
	<g>
		<path class="st0" d="M72.2,6.5c-5,0-8.7,3.7-8.7,8.7c0,5.1,3.6,8.7,8.7,8.7c5.1,0,8.7-3.6,8.7-8.7C81,10.1,77.3,6.5,72.2,6.5z
			 M72.2,19.3c-2.6,0-3.8-2.1-3.8-4.1c0-2,1.2-4.2,3.8-4.2c2.4,0,3.8,2.1,3.8,4.2C76,17.3,74.9,19.3,72.2,19.3z"/>
	</g>
	<g>
		<polygon class="st0" points="87.3,0 87.3,23.6 82.4,23.6 82.4,1.8 		"/>
	</g>
	<g>
		<path class="st0" d="M97.4,6.5c-5,0-8.7,3.7-8.7,8.7c0,5.1,3.6,8.7,8.7,8.7c5.1,0,8.7-3.6,8.7-8.7C106.1,10.1,102.4,6.5,97.4,6.5z
			 M97.4,19.3c-2.6,0-3.8-2.1-3.8-4.1c0-2,1.2-4.2,3.8-4.2c2.4,0,3.8,2.1,3.8,4.2C101.2,17.3,100,19.3,97.4,19.3z"/>
	</g>
</g>
<g>
	<path class="st1" d="M24.7,7.5c-4.5,0-7.7,3.2-7.7,7.7s3.2,7.7,7.7,7.7c4.6,0,7.7-3.2,7.7-7.7C32.5,10.7,29.2,7.5,24.7,7.5z
		 M24.7,20.3c-3.3,0-4.8-2.7-4.8-5.1c0-2.6,1.6-5.2,4.8-5.2c3,0,4.8,2.6,4.8,5.2C29.5,17.7,28,20.3,24.7,20.3z"/>
	<path class="st1" d="M15.4,26.4c-0.2,3.8-3.3,6.3-7.7,6.3c-4.4,0-7.5-2.5-7.7-6.3h3c0.3,2,2.2,3.5,4.7,3.5c2.6,0,4.4-1.4,4.6-3.5
		C12.4,26.4,15.4,26.4,15.4,26.4z"/>
	<path class="st1" d="M13.8,10.2L14,9.9l0.1-0.1l1.4-1.7l-2.1-1.6l-1.5,1.9l-0.4-0.1C10.3,7.8,9,7.5,7.7,7.5C3.2,7.5,0,10.7,0,15.2
		s3.2,7.7,7.7,7.7c4.5,0,7.7-3.2,7.7-7.7c0-1.7-0.5-3.4-1.4-4.6L13.8,10.2z M7.7,20.3c-3.3,0-4.8-2.7-4.8-5.1c0-2.6,1.7-5.2,4.8-5.2
		c3,0,4.8,2.6,4.8,5.2C12.5,17.7,11,20.3,7.7,20.3z"/>
</g>
</svg>
